<svg id="circles" xmlns="http://www.w3.org/2000/svg" viewBox="0 0 500 500">
  <defs>
    <style>
      .cls-1 {
        fill: aqua;
      }
    </style>
  </defs>
  <g id="eight">
    <path class="cls-1" d="M76.05,72.84a2.46,2.46,0,0,1,1.77.74,2.5,2.5,0,1,1-3.54,0,2.47,2.47,0,0,1,1.77-.74m0-1a3.51,3.51,0,1,0,2.48,1,3.5,3.5,0,0,0-2.48-1Z"/>
  </g>
  <g id="seven">
    <path class="cls-1" d="M3.5,247A2.5,2.5,0,1,1,1,249.5,2.5,2.5,0,0,1,3.5,247m0-1A3.5,3.5,0,1,0,7,249.5,3.5,3.5,0,0,0,3.5,246Z"/>
  </g>
  <g id="six">
    <path class="cls-1" d="M75.34,421.45a2.5,2.5,0,1,1-1.76.73,2.49,2.49,0,0,1,1.76-.73m0-1a3.5,3.5,0,1,0,2.48,1,3.49,3.49,0,0,0-2.48-1Z"/>
  </g>
  <g id="five">
    <path class="cls-1" d="M249.5,494a2.5,2.5,0,1,1-2.5,2.5,2.5,2.5,0,0,1,2.5-2.5m0-1a3.5,3.5,0,1,0,3.5,3.5,3.5,3.5,0,0,0-3.5-3.5Z"/>
  </g>
  <g id="four">
    <path class="cls-1" d="M424,422.16a2.5,2.5,0,0,1,1.77,4.26,2.5,2.5,0,1,1-1.77-4.26m0-1a3.5,3.5,0,1,0,2.47,1,3.51,3.51,0,0,0-2.47-1Z"/>
  </g>
  <g id="three">
    <path class="cls-1" d="M496.5,248a2.5,2.5,0,1,1-2.5,2.5,2.5,2.5,0,0,1,2.5-2.5m0-1a3.5,3.5,0,1,0,3.5,3.5,3.5,3.5,0,0,0-3.5-3.5Z"/>
  </g>
  <g id="two">
    <path class="cls-1" d="M424.66,73.55a2.49,2.49,0,1,1-1.77.73,2.48,2.48,0,0,1,1.77-.73m0-1a3.51,3.51,0,1,0,2.47,1,3.47,3.47,0,0,0-2.47-1Z"/>
  </g>
  <g id="one">
    <path class="cls-1" d="M250.5,1A2.5,2.5,0,1,1,248,3.5,2.5,2.5,0,0,1,250.5,1m0-1A3.5,3.5,0,1,0,254,3.5,3.5,3.5,0,0,0,250.5,0Z"/>
  </g>
  <g id="middleOne">
    <path class="cls-1" d="M250,247.5a2.5,2.5,0,1,1-2.5,2.5,2.5,2.5,0,0,1,2.5-2.5m0-1a3.5,3.5,0,1,0,3.5,3.5,3.5,3.5,0,0,0-3.5-3.5Z"/>
  </g>
  <g id="middleTwo">
    <path class="cls-1" d="M250,247.5a2.5,2.5,0,1,1-2.5,2.5,2.5,2.5,0,0,1,2.5-2.5m0-1a3.5,3.5,0,1,0,3.5,3.5,3.5,3.5,0,0,0-3.5-3.5Z"/>
  </g>
  <g id="middleThree">
    <path class="cls-1" d="M250,247.5a2.5,2.5,0,1,1-2.5,2.5,2.5,2.5,0,0,1,2.5-2.5m0-1a3.5,3.5,0,1,0,3.5,3.5,3.5,3.5,0,0,0-3.5-3.5Z"/>
  </g>
</svg>
